<svg width="2737" height="1000" viewBox="0 0 2737 1000" xmlns="http://www.w3.org/2000/svg"><title>Logo mit Text</title><g fill="none" fill-rule="evenodd"><path fill="#2A4480" d="M434 150l303.11 175-.001 350-129.899-75V400L434 300z"/><path fill="#4671D5" d="M434 150v150L260.79 400v200l-129.899 75-.001-350z"/><path fill="#6C8CD5" d="M434 700l173.21-100 129.899 75L434 850 130.891 675l129.899-75z"/><path fill="#4671D5" d="M737.11 325l129.903-75v500L434 1000V850l303.11-175z"/><path fill="#2A4480" d="M130.89 325v350L434 850v150L.987 750V250z"/><path fill="#6C8CD5" d="M434 0l433.013 250-129.903 75L434 150 130.89 325 .987 250z"/><text font-family="MavenPro-Bold, Maven Pro" font-size="600" font-weight="bold" fill="#4671D5"><tspan x="988.3" y="706">Locity</tspan></text></g></svg>