<svg width="667" height="564" viewBox="0 0 667 564" xmlns="http://www.w3.org/2000/svg"><title>Baustelle</title><g fill="none" fill-rule="evenodd"><path d="M634.823 563.49l-608.24.453c-23.773.018-33.776-24.222-19.782-47.94l292.215-495.26c16.69-27.483 47.629-27.782 64.318.928l295.569 493.88c16.259 23.581 4.437 48.362-24.08 47.94z" fill="#4990E2"/><path fill="#FFF" d="M330.281 72.5l-97.687 160.594L71.313 510.03l193.812 1.875 330.656-2.75-96.156-162.469z"/><path d="M573.359 493.123l-245.615.316c-2.225-.2-3.837-.708-2.994-3.363L415 374.388c3.121-4.423 7.83-6.815 12.568-6.679l45.351-.097c7.355-.003 10.191 2.126 14.239 7.208l88.375 114.12c.809 2.008.084 4.015-2.174 4.183z" fill="#000" fill-rule="nonzero"/><rect fill="#000002" transform="rotate(24.742 305.194 311.343)" x="274.124" y="249.001" width="62.142" height="124.684" rx="11.205"/><rect fill="#000" fill-rule="nonzero" x="249.614" y="242.594" width="100" height="32.5" rx="9.412"/><rect fill="#000" fill-rule="nonzero" transform="rotate(-57.813 242.267 290.46)" x="195.671" y="276.638" width="93.192" height="27.643" rx="8.771"/><rect fill="#000" fill-rule="nonzero" transform="rotate(26.274 348.104 383.975)" x="201.837" y="376.222" width="292.534" height="15.506" rx="7.753"/><rect fill="#000" fill-rule="nonzero" transform="rotate(-93.284 352.194 319.323)" x="284.718" y="305.808" width="134.952" height="27.031" rx="12.701"/><ellipse fill="#000" fill-rule="nonzero" cx="368.806" cy="227.594" rx="29.924" ry="31.616"/><rect fill="#000" fill-rule="nonzero" transform="rotate(-103.356 297.157 391.006)" x="258.124" y="375.387" width="78.066" height="31.236" rx="7.347"/><rect fill="#000" fill-rule="nonzero" transform="rotate(-90.435 304.964 453.504)" x="265.844" y="437.881" width="78.24" height="31.246" rx="7.364"/><rect fill="#000" fill-rule="nonzero" transform="rotate(-58.831 235.214 417.14)" x="156.861" y="401.164" width="156.706" height="31.953" rx="14.749"/></g></svg>